HIERARCHY
ROOT Pelvis
{
	OFFSET -0.217368 -24.078917 2.858379
	CHANNELS 6 Xposition Yposition Zposition Zrotation Yrotation Xrotation 
	JOINT Left_hip
	{
		OFFSET 5.858135 -8.228005 -1.766408
		CHANNELS 3 Zrotation Yrotation Xrotation
		JOINT Left_knee
		{
			OFFSET 4.345143 -38.646942 0.803700
			CHANNELS 3 Zrotation Yrotation Xrotation
			JOINT Left_ankle
			{
				OFFSET -1.479033 -42.687447 -3.742800
				CHANNELS 3 Zrotation Yrotation Xrotation
				JOINT Left_foot
				{
					OFFSET 4.105436 -6.028605 12.204244
					CHANNELS 3 Zrotation Yrotation Xrotation
					End Site
					{
						OFFSET 0.000000 0.000000 0.000000
					}
				}
			}
		}
	}
	JOINT Right_hip
	{
		OFFSET -6.030973 -9.051328 -1.354253
		CHANNELS 3 Zrotation Yrotation Xrotation
		JOINT Right_knee
		{
			OFFSET -4.325663 -38.368790 -0.484304
			CHANNELS 3 Zrotation Yrotation Xrotation
			JOINT Right_ankle
			{
				OFFSET 1.905555 -42.004566 -3.456167
				CHANNELS 3 Zrotation Yrotation Xrotation
				JOINT Right_foot
				{
					OFFSET -3.483987 -6.210554 13.032330
					CHANNELS 3 Zrotation Yrotation Xrotation
					End Site
					{
						OFFSET 0.000000 0.000000 0.000000
					}
				}
			}
		}
	}
	JOINT Spine1
	{
		OFFSET 0.443945 12.440353 -3.838522
		CHANNELS 3 Zrotation Yrotation Xrotation
		JOINT Spine2
		{
			OFFSET 0.448844 13.795640 2.682033
			CHANNELS 3 Zrotation Yrotation Xrotation
			JOINT Spine3
			{
				OFFSET -0.226460 5.603239 0.285504
				CHANNELS 3 Zrotation Yrotation Xrotation
				JOINT Neck
				{
					OFFSET -1.339018 21.163553 -3.346758
					CHANNELS 3 Zrotation Yrotation Xrotation
					JOINT Head
					{
						OFFSET 1.011321 8.893734 5.040987
						CHANNELS 3 Zrotation Yrotation Xrotation
						End Site
						{
							OFFSET 0.000000 0.000000 0.000000
						}
					}
				}
				JOINT Left_collar
				{
					OFFSET 7.170247 11.399971 -1.889817
					CHANNELS 3 Zrotation Yrotation Xrotation
					JOINT Left_shoulder
					{
						OFFSET 12.292140 4.520507 -1.904600
						CHANNELS 3 Zrotation Yrotation Xrotation
						JOINT Left_elbow
						{
							OFFSET 25.533188 -1.564902 -2.294648
							CHANNELS 3 Zrotation Yrotation Xrotation
							JOINT Left_wrist
							{
								OFFSET 26.570929 1.269810 -0.737473
								CHANNELS 3 Zrotation Yrotation Xrotation
								JOINT Left_palm
								{
									OFFSET 8.669054 -1.063602 -1.559429
									CHANNELS 3 Zrotation Yrotation Xrotation
									End Site
									{
										OFFSET 0.000000 0.000000 0.000000
									}
								}
							}
						}
					}
				}
				JOINT Right_collar
				{
					OFFSET -8.295364 11.247234 -2.370738
					CHANNELS 3 Zrotation Yrotation Xrotation
					JOINT Right_shoulder
					{
						OFFSET -11.322830 4.685326 -0.847207
						CHANNELS 3 Zrotation Yrotation Xrotation
						JOINT Right_elbow
						{
							OFFSET -26.012751 -1.436928 -3.126872
							CHANNELS 3 Zrotation Yrotation Xrotation
							JOINT Right_wrist
							{
								OFFSET -26.910841 0.679372 -0.602677
								CHANNELS 3 Zrotation Yrotation Xrotation
								JOINT Right_palm
								{
									OFFSET -8.875370 -0.865157 -1.010708
									CHANNELS 3 Zrotation Yrotation Xrotation
									End Site
									{
										OFFSET 0.000000 0.000000 0.000000
									}
								}
							}
						}
					}
				}
			}
		}
	}
}
MOTION
Frames: 9
Frame Time: 0.016667
-0.217368 74.359962 2.858379 -2.024477 0.614870 -0.430954 11.220855 -0.083058 -7.491646 -4.685099 0.421938 -12.853017 45.112478 26.179772 108.455486 0.000000 0.000000 0.000000 -10.675914 0.287193 -6.168323 3.052992 -0.496601 -13.711388 -45.608281 -27.650034 112.094118 0.000000 0.000000 0.000000 2.720158 0.130183 -2.362409 -2.264516 1.227361 -39.185093 -1.940263 -0.168029 41.363055 -2.134045 4.211810 -68.736781 0.000000 0.000000 0.000000 -5.764875 8.094461 -3.725826 -36.523110 -2.085504 -3.370807 -126.632555 61.040188 -104.566825 0.000000 0.000000 0.000000 0.000000 0.000000 0.000000 8.826321 -5.935361 -3.385278 41.722379 14.090726 0.961791 128.681322 -37.531925 -77.925640 0.000000 0.000000 0.000000 0.000000 0.000000 0.000000 
-0.178645 74.246368 2.847405 -1.755246 2.276360 0.082186 11.136241 -0.079276 -8.865066 -7.080441 0.410722 -13.002806 51.335893 26.860450 109.606250 0.000000 0.000000 0.000000 -10.693908 0.289487 -6.613037 0.416697 -0.502863 -12.846448 -33.477695 -24.808267 113.791908 0.000000 0.000000 0.000000 2.650863 0.125068 -2.295959 -4.189584 1.420872 -39.929437 -2.177165 -2.349232 41.643389 -3.744747 4.350717 -70.661200 0.000000 0.000000 0.000000 -4.472123 8.595039 -3.679867 -37.488490 3.194908 -4.945638 -106.460524 70.115185 -90.937815 0.000000 0.000000 0.000000 0.000000 0.000000 0.000000 9.087663 -6.029329 -3.467430 40.597075 14.702063 1.108328 123.433679 -35.518470 -68.400888 0.000000 0.000000 0.000000 0.000000 0.000000 0.000000 
-0.175294 74.263710 2.841678 -1.782681 0.782921 -1.186301 9.467441 -0.163601 -5.933220 -5.287945 0.394143 -14.952759 49.385370 26.138673 110.819155 0.000000 0.000000 0.000000 -10.009683 0.288388 -4.606039 0.620908 -0.554139 -14.402915 -34.271258 -24.956793 113.790763 0.000000 0.000000 0.000000 2.331383 0.103232 -2.001026 -2.460158 1.248336 -39.358601 -0.854653 -0.553609 41.722753 -3.406668 4.318172 -69.854740 0.000000 0.000000 0.000000 -6.263628 6.897147 -3.346221 -37.335020 3.311872 -4.956124 -107.743427 73.726947 -96.064672 0.000000 0.000000 0.000000 0.000000 0.000000 0.000000 9.874273 -5.940970 -3.556977 40.324545 15.539525 1.361609 122.041617 -34.160529 -64.791247 0.000000 0.000000 0.000000 0.000000 0.000000 0.000000 
-0.168025 74.566383 2.806553 -1.653886 -0.088163 -1.306965 9.778951 -0.149965 -5.726426 -5.861092 0.396572 -14.113032 48.991809 26.321307 110.073209 0.000000 0.000000 0.000000 -10.134649 0.282641 -4.286839 0.247383 -0.534775 -13.677914 -32.245279 -24.983403 111.782705 0.000000 0.000000 0.000000 2.589795 0.013565 -0.547166 -2.508759 1.254713 -40.488121 -1.001294 -1.078002 41.271192 -5.227867 4.419589 -69.440298 0.000000 0.000000 0.000000 -5.943774 8.513854 -3.921634 -35.545222 5.829021 -5.355844 -107.885157 74.473460 -96.979964 0.000000 0.000000 0.000000 0.000000 0.000000 0.000000 8.042882 -6.297893 -3.410318 41.444188 16.826997 1.852903 116.279737 -34.009372 -58.542742 0.000000 0.000000 0.000000 0.000000 0.000000 0.000000 
-0.143089 74.676971 2.784827 -1.763213 -0.488372 -2.168469 9.404907 -0.151978 -4.379771 -5.450577 0.396776 -14.512010 49.472000 26.046151 111.139857 0.000000 0.000000 0.000000 -10.150164 0.271841 -3.337705 0.012886 -0.505991 -12.859322 -32.511232 -24.842757 112.737043 0.000000 0.000000 0.000000 2.796510 0.003548 -0.404081 -2.114352 1.216079 -40.178593 -0.753981 -0.067319 41.828605 -6.359012 4.488349 -69.320246 0.000000 0.000000 0.000000 -5.562051 8.169414 -3.717941 -34.770851 5.839275 -5.229727 -126.716737 75.367445 -118.855648 0.000000 0.000000 0.000000 0.000000 0.000000 0.000000 8.073586 -5.780109 -3.199890 40.877833 17.701634 2.098510 112.987385 -32.580688 -53.449185 0.000000 0.000000 0.000000 0.000000 0.000000 0.000000 
-0.098240 74.764595 2.761044 -1.758230 -1.015200 -2.212410 9.286409 -0.148819 -3.759222 -5.320368 0.384384 -15.667735 48.052712 25.826244 111.159124 0.000000 0.000000 0.000000 -10.448819 0.269561 -3.284054 0.425343 -0.523936 -13.441611 -32.717193 -24.987350 112.229085 0.000000 0.000000 0.000000 3.123178 0.021105 -0.684393 -2.167120 1.222890 -40.584144 -0.256067 0.454197 41.962606 -7.968625 4.583214 -69.499362 0.000000 0.000000 0.000000 -5.791512 7.939984 -3.670727 -34.215392 5.188514 -4.975672 -133.037315 71.080554 -122.607963 0.000000 0.000000 0.000000 0.000000 0.000000 0.000000 7.233071 -5.527179 -2.963959 41.157443 19.132235 2.594572 108.818754 -32.576459 -49.849967 0.000000 0.000000 0.000000 0.000000 0.000000 0.000000 
-0.093359 74.863403 2.699616 -1.593672 -0.703631 -2.337239 9.060639 -0.159134 -4.221814 -5.454364 0.383180 -15.488663 46.472333 25.628982 111.031594 0.000000 0.000000 0.000000 -10.168651 0.273770 -3.523677 0.615117 -0.533157 -13.779631 -32.643938 -24.852524 112.815743 0.000000 0.000000 0.000000 3.022944 0.015213 -0.593406 -1.849427 1.191891 -40.397224 0.012296 0.496374 41.629978 -8.500529 4.627869 -68.979334 0.000000 0.000000 0.000000 -6.111244 7.453809 -3.538151 -34.225025 2.698779 -4.356151 -131.538982 65.538532 -115.555357 0.000000 0.000000 0.000000 0.000000 0.000000 0.000000 7.006143 -4.684740 -2.586957 40.176230 20.698172 3.008951 107.932443 -28.781964 -44.141824 0.000000 0.000000 0.000000 0.000000 0.000000 0.000000 
-0.082031 74.820648 2.611184 -1.205068 -0.504263 -2.292212 8.618821 -0.172815 -4.388153 -5.767231 0.372807 -15.624731 46.168626 25.725456 110.560817 0.000000 0.000000 0.000000 -10.365027 0.273120 -3.617132 1.175445 -0.525549 -13.800393 -31.374553 -24.560337 113.051341 0.000000 0.000000 0.000000 3.071367 0.034311 -0.878202 -1.748951 1.178807 -39.948049 0.136707 0.689642 41.912426 -10.076280 4.705657 -69.584543 0.000000 0.000000 0.000000 -6.603876 6.226978 -3.138540 -34.889317 -0.375855 -3.658257 -128.722654 58.601871 -104.581283 0.000000 0.000000 0.000000 0.000000 0.000000 0.000000 6.905876 -3.973814 -2.284259 38.983390 22.358129 3.399810 105.682655 -25.015587 -37.605984 0.000000 0.000000 0.000000 0.000000 0.000000 0.000000 
-0.070905 74.754852 2.535164 -1.078546 -0.503638 -2.604620 8.400370 -0.182770 -4.622496 -5.492804 0.386913 -15.155337 45.839703 25.661587 110.605466 0.000000 0.000000 0.000000 -10.593316 0.270214 -3.485647 1.402544 -0.515277 -13.544339 -31.244999 -24.541352 113.020910 0.000000 0.000000 0.000000 3.220598 0.005268 -0.457485 -1.861626 1.190550 -40.032443 0.123434 0.911341 42.457680 -10.397236 4.684208 -70.559334 0.000000 0.000000 0.000000 -7.270129 5.280554 -2.866323 -35.158176 -2.720093 -3.076955 -124.606658 52.924824 -92.507873 0.000000 0.000000 0.000000 0.000000 0.000000 0.000000 6.631570 -3.409806 -2.019005 38.731722 23.557438 3.744161 103.612922 -21.698797 -32.057700 0.000000 0.000000 0.000000 0.000000 0.000000 0.000000 
